HIERARCHY
ROOT Hips
{
	OFFSET 0.000000 0.000000 0.990480
	CHANNELS 6 Xposition Yposition Zposition Xrotation Yrotation Zrotation
	JOINT Spine
	{
		OFFSET 0.000000 0.000000 0.099820
		CHANNELS 6 Xposition Yposition Zposition Xrotation Yrotation Zrotation
		JOINT Chest
		{
			OFFSET 0.000000 0.000000 0.152175
			CHANNELS 6 Xposition Yposition Zposition Xrotation Yrotation Zrotation
			JOINT Neck
			{
				OFFSET 0.000000 0.000000 0.337083
				CHANNELS 6 Xposition Yposition Zposition Xrotation Yrotation Zrotation
				JOINT Head
				{
					OFFSET 0.000000 0.000000 0.150550
					CHANNELS 3 Xrotation Yrotation Zrotation
					End Site
					{
						OFFSET 0.000000 0.000000 0.164719
					}
				}
			}
			JOINT RightShoulder
			{
				OFFSET -0.043277 0.000000 0.228616
				CHANNELS 6 Xposition Yposition Zposition Xrotation Yrotation Zrotation
				JOINT RightArm
				{
					OFFSET -0.105461 0.000000 0.000004
					CHANNELS 6 Xposition Yposition Zposition Xrotation Yrotation Zrotation
					JOINT RightForeArm
					{
						OFFSET -0.247377 0.000000 0.000009
						CHANNELS 6 Xposition Yposition Zposition Xrotation Yrotation Zrotation
						JOINT RightHand
						{
							OFFSET -0.262149 0.000000 0.000009
							CHANNELS 6 Xposition Yposition Zposition Xrotation Yrotation Zrotation
							JOINT RightHandIndex1
							{
								OFFSET -0.082535 -0.029415 0.000003
								CHANNELS 3 Xrotation Yrotation Zrotation
								JOINT RightHandIndex2
								{
									OFFSET -0.033301 -0.004409 0.000001
									CHANNELS 3 Xrotation Yrotation Zrotation
									JOINT RightHandIndex3
									{
										OFFSET -0.025492 -0.003784 0.000001
										CHANNELS 3 Xrotation Yrotation Zrotation
										End Site
										{
											OFFSET -0.043285 -0.003344 0.000001
										}
									}
								}
							}
							JOINT RightHandMiddle1
							{
								OFFSET -0.088557 -0.008155 0.000003
								CHANNELS 3 Xrotation Yrotation Zrotation
								JOINT RightHandMiddle2
								{
									OFFSET -0.034042 -0.001186 0.000001
									CHANNELS 3 Xrotation Yrotation Zrotation
									JOINT RightHandMiddle3
									{
										OFFSET -0.026773 -0.000599 0.000000
										CHANNELS 3 Xrotation Yrotation Zrotation
										End Site
										{
											OFFSET -0.052615 -0.002366 0.000002
										}
									}
								}
							}
							JOINT RightHandRing1
							{
								OFFSET -0.085632 0.009333 0.000003
								CHANNELS 3 Xrotation Yrotation Zrotation
								JOINT RightHandRing2
								{
									OFFSET -0.029113 0.002339 0.000001
									CHANNELS 3 Xrotation Yrotation Zrotation
									JOINT RightHandRing3
									{
										OFFSET -0.027037 0.001866 0.000001
										CHANNELS 3 Xrotation Yrotation Zrotation
										End Site
										{
											OFFSET -0.048310 0.000687 0.000001
										}
									}
								}
							}
							JOINT RightHandPinky1
							{
								OFFSET -0.076599 0.027405 0.000003
								CHANNELS 3 Xrotation Yrotation Zrotation
								JOINT RightHandPinky2
								{
									OFFSET -0.032445 0.007645 0.000002
									CHANNELS 3 Xrotation Yrotation Zrotation
									JOINT RightHandPinky3
									{
										OFFSET -0.019101 0.004136 0.000001
										CHANNELS 3 Xrotation Yrotation Zrotation
										End Site
										{
											OFFSET -0.036478 0.003212 0.000001
										}
									}
								}
							}
							JOINT RightHandThumb1
							{
								OFFSET -0.018894 -0.029252 0.000001
								CHANNELS 3 Xrotation Yrotation Zrotation
								JOINT RightHandThumb2
								{
									OFFSET -0.024834 -0.023384 0.000001
									CHANNELS 3 Xrotation Yrotation Zrotation
									JOINT RightHandThumb3
									{
										OFFSET -0.024730 -0.013883 0.000001
										CHANNELS 3 Xrotation Yrotation Zrotation
										End Site
										{
											OFFSET -0.036269 -0.015625 0.000001
										}
									}
								}
							}
						}
					}
				}
			}
			JOINT LeftShoulder
			{
				OFFSET 0.043336 0.000000 0.228616
				CHANNELS 6 Xposition Yposition Zposition Xrotation Yrotation Zrotation
				JOINT LeftArm
				{
					OFFSET 0.105402 0.000000 0.000018
					CHANNELS 6 Xposition Yposition Zposition Xrotation Yrotation Zrotation
					JOINT LeftForeArm
					{
						OFFSET 0.248086 -0.001017 0.000042
						CHANNELS 6 Xposition Yposition Zposition Xrotation Yrotation Zrotation
						JOINT LeftHand
						{
							OFFSET 0.262001 0.000000 0.000044
							CHANNELS 6 Xposition Yposition Zposition Xrotation Yrotation Zrotation
							JOINT LeftHandIndex1
							{
								OFFSET 0.082507 -0.030061 -0.000028
								CHANNELS 3 Xrotation Yrotation Zrotation
								JOINT LeftHandIndex2
								{
									OFFSET 0.033280 -0.004602 0.000048
									CHANNELS 3 Xrotation Yrotation Zrotation
									JOINT LeftHandIndex3
									{
										OFFSET 0.025464 -0.003944 0.000004
										CHANNELS 3 Xrotation Yrotation Zrotation
										End Site
										{
											OFFSET 0.043236 -0.003593 0.000007
										}
									}
								}
							}
							JOINT LeftHandMiddle1
							{
								OFFSET 0.088481 -0.008664 0.000015
								CHANNELS 3 Xrotation Yrotation Zrotation
								JOINT LeftHandMiddle2
								{
									OFFSET 0.034019 -0.001373 0.000006
									CHANNELS 3 Xrotation Yrotation Zrotation
									JOINT LeftHandMiddle3
									{
										OFFSET 0.026769 -0.000745 0.000005
										CHANNELS 3 Xrotation Yrotation Zrotation
										End Site
										{
											OFFSET 0.052542 -0.002648 0.000009
										}
									}
								}
							}
							JOINT LeftHandRing1
							{
								OFFSET 0.085626 0.008930 0.000014
								CHANNELS 3 Xrotation Yrotation Zrotation
								JOINT LeftHandRing2
								{
									OFFSET 0.029129 0.002221 0.000005
									CHANNELS 3 Xrotation Yrotation Zrotation
									JOINT LeftHandRing3
									{
										OFFSET 0.027049 0.001739 0.000005
										CHANNELS 3 Xrotation Yrotation Zrotation
										End Site
										{
											OFFSET 0.048215 0.000435 0.000008
										}
									}
								}
							}
							JOINT LeftHandPinky1
							{
								OFFSET 0.076700 0.027168 0.000013
								CHANNELS 3 Xrotation Yrotation Zrotation
								JOINT LeftHandPinky2
								{
									OFFSET 0.032485 0.007539 0.000005
									CHANNELS 3 Xrotation Yrotation Zrotation
									JOINT LeftHandPinky3
									{
										OFFSET 0.019121 0.004064 0.000003
										CHANNELS 3 Xrotation Yrotation Zrotation
										End Site
										{
											OFFSET 0.036502 0.003032 0.000006
										}
									}
								}
							}
							JOINT LeftHandThumb1
							{
								OFFSET 0.018711 -0.029540 0.000003
								CHANNELS 3 Xrotation Yrotation Zrotation
								JOINT LeftHandThumb2
								{
									OFFSET 0.024721 -0.023664 0.000004
									CHANNELS 3 Xrotation Yrotation Zrotation
									JOINT LeftHandThumb3
									{
										OFFSET 0.024649 -0.014096 0.000004
										CHANNELS 3 Xrotation Yrotation Zrotation
										End Site
										{
											OFFSET 0.036243 -0.015928 0.000006
										}
									}
								}
							}
						}
					}
				}
			}
		}
	}
	JOINT RightUpLeg
	{
		OFFSET -0.115000 0.000000 -0.015985
		CHANNELS 6 Xposition Yposition Zposition Xrotation Yrotation Zrotation
		JOINT RightLeg
		{
			OFFSET 0.000000 0.000000 -0.417140
			CHANNELS 6 Xposition Yposition Zposition Xrotation Yrotation Zrotation
			JOINT RightFoot
			{
				OFFSET 0.000000 0.000000 -0.438030
				CHANNELS 3 Xrotation Yrotation Zrotation
				JOINT RightToeBase
				{
					OFFSET 0.000000 -0.104620 -0.083528
					CHANNELS 6 Xposition Yposition Zposition Xrotation Yrotation Zrotation
					End Site
					{
						OFFSET 0.000000 -0.133871 -0.000951
					}
				}
			}
		}
	}
	JOINT LeftUpLeg
	{
		OFFSET 0.115000 0.000000 -0.015985
		CHANNELS 6 Xposition Yposition Zposition Xrotation Yrotation Zrotation
		JOINT LeftLeg
		{
			OFFSET 0.000000 0.000000 -0.417140
			CHANNELS 6 Xposition Yposition Zposition Xrotation Yrotation Zrotation
			JOINT LeftFoot
			{
				OFFSET 0.000000 0.000000 -0.438030
				CHANNELS 3 Xrotation Yrotation Zrotation
				JOINT LeftToeBase
				{
					OFFSET 0.000000 -0.104620 -0.083528
					CHANNELS 6 Xposition Yposition Zposition Xrotation Yrotation Zrotation
					End Site
					{
						OFFSET 0.000000 -0.133871 -0.000951
					}
				}
			}
		}
	}
}
MOTION
Frames: 4
Frame Time:	0.016667
0 0 0.9905 0 0 0 0 0 0.0998 0 0 0 0 0 0.1522 0 0 0 0 0 0.3371 0 0 0 0 0 0 -0.0433 0 0.2286 0 0 0 -0.1055 0 0 0 0 0 -0.2474 0 0 0 0 0 -0.2621 0 0 0 0 0 0 0 0 0 0 0 0 0 0 0 0 0 0 0 0 0 0 0 0 0 0 0 0 0 0 0 0 0 0 0 0 0 0 0 0 0 0 0 0 0 0 0 0 0 0 0.0433 0 0.2286 0 0 0 0.1054 0 0 0 0 0 0.2481 -0.001 0 0 0 0 0.262 0 0 0 0 0 0 0 0 0 0 0 0 0 0 0 0 0 0 0 0 0 0 0 0 0 0 0 0 0 0 0 0 0 0 0 0 0 0 0 0 0 0 0 0 0 0 0 0 0 0 -0.115 0 -0.016 0 0 0 0 0 -0.4171 0 0 0 0 0 0 0 -0.1046 -0.0835 0 0 0 0.115 0 -0.016 0 0 0 0 0 -0.4171 0 0 0 0 0 0 0 -0.1046 -0.0835 0 0 0 
0.0035 0.1004 0.9403 -16.4171 -1.3841 -2.678 0 0 0.0999 14.2891 1.7207 -1.1847 0 0 0.1523 19.2073 2.4132 -3.5175 0 0 0.2935 -0.3958 0.2449 4.4198 -32.4897 -0.7771 4.0747 -0.0433 0 0.2365 9.687 -22.8933 -2.9171 -0.1055 0 0 14.2686 -44.6783 16.4251 -0.2671 0 0 -4.1448 -4.9126 42.9045 -0.283 0 0 27.4566 3.6513 8.0529 28.2596 -63.7493 33.6833 35.3743 -79.615 32.4469 9.5594 -64.772 7.6286 5.2944 -53.0484 7.0035 2.7307 -73.5652 2.3603 2.34 -71.6297 1.9876 -9.5193 -65.1306 -4.7348 -10.0277 -75.5062 -8.8254 -15.0499 -79.5018 -13.7318 -0.7633 -25.574 -1.6601 -7.9381 -38.9857 -2.8641 -6.3718 -34.16 -1.93 12.1224 -22.1547 -0.0349 -0.004 0.0019 -23.923 -0.0042 0.0028 -51.1302 0.0433 0 0.2365 7.9849 20.9648 3.5735 0.1054 0 0 9.6489 41.23 -10.7093 0.2674 -0.0011 0 -6.6361 5.0963 -53.2321 0.2824 0 0 22.0574 -3.7692 -7.0086 27.6647 63.1944 -32.9423 35.1799 79.1856 -32.1491 9.9482 64.7228 -7.9353 4.0597 48.6304 -4.7482 2.7641 70.9583 -2.3333 2.4774 69.4948 -2.0635 -8.1388 62.8354 3.9867 -9.4062 74.8601 8.0482 -13.5778 78.7514 12.1119 -5.5931 42.4771 -1.6807 -20.8891 61.8077 13.0104 -22.203 63.077 14.1754 12.1292 21.9526 -0.5169 -0.0037 -0.0007 23.0023 -0.007 -0.0039 50.0081 -0.115 0 -0.016 20.9778 2.6227 -12.6593 0 0 -0.4171 18.5098 -0.5246 0.0855 -23.5099 -1.7079 -10.3334 0 -0.1046 -0.0835 -0.0979 0 0 0.115 0 -0.016 1.5774 -2.7735 6.7835 0 0 -0.4171 29.075 0.6141 -0.1592 -10.0352 0.838 5.0428 0 -0.1046 -0.0835 -2.9149 0 0 
0.0033 0.1018 0.9411 -16.2194 -1.3371 -2.6598 0 0 0.0999 14.2109 1.6578 -1.1522 0 0 0.1523 19.1044 2.3287 -3.421 0 0 0.2935 -0.3862 0.2469 4.433 -32.5222 -0.5582 4.1363 -0.0433 0 0.2365 9.6723 -22.8811 -2.9238 -0.1055 0 0 14.2407 -44.649 16.502 -0.2671 0 0 -4.2015 -4.8997 42.6962 -0.283 0 0 27.4161 3.6867 8.1318 28.2596 -63.7493 33.6832 35.3745 -79.615 32.4469 9.5595 -64.7721 7.6287 5.2944 -53.0485 7.0035 2.7309 -73.5653 2.3604 2.3401 -71.6298 1.9876 -9.5193 -65.1306 -4.7347 -10.0277 -75.5062 -8.8255 -15.0498 -79.5018 -13.7318 -0.7634 -25.5742 -1.6593 -7.9382 -38.9859 -2.8642 -6.372 -34.1607 -1.9301 12.1224 -22.1547 -0.0349 -0.0039 0.0018 -23.923 -0.0042 0.0028 -51.1302 0.0433 0 0.2365 7.9924 20.9743 3.5244 0.1054 0 0 9.697 41.2761 -10.9854 0.2674 -0.0011 0 -6.6794 5.1 -52.9107 0.2824 0 0 22.0482 -3.8492 -7.1013 27.6647 63.1944 -32.9424 35.1797 79.1856 -32.1492 9.9482 64.7228 -7.9353 4.0597 48.6308 -4.7483 2.7645 70.9599 -2.3336 2.4775 69.4952 -2.0637 -8.1387 62.8354 3.9864 -9.4063 74.8604 8.0483 -13.5777 78.7515 12.112 -5.593 42.4772 -1.6822 -20.8904 61.8089 13.0115 -22.2028 63.0768 14.1752 12.1293 21.9526 -0.5169 -0.0037 -0.0007 23.0023 -0.007 -0.0039 50.0081 -0.115 0 -0.016 20.7491 2.5085 -12.6729 0 0 -0.4171 18.3666 -0.526 0.085 -23.2276 -1.5362 -10.3751 0 -0.1046 -0.0835 -0.1646 0 0.0001 0.115 0 -0.016 1.4491 -2.8266 6.7877 0 0 -0.4171 28.7394 0.6173 -0.1581 -9.7608 0.8328 5.034 0 -0.1046 -0.0835 -2.9185 0 0 
0.0031 0.1037 0.9422 -15.9241 -1.3206 -2.612 0 0 0.1 14.0959 1.5878 -1.1159 0 0 0.1523 18.9517 2.2347 -3.3125 0 0 0.2935 -0.376 0.2497 4.4417 -32.6152 -0.2739 4.2042 -0.0433 0 0.2365 9.6544 -22.8663 -2.9284 -0.1055 0 0 14.21 -44.6213 16.6202 -0.2671 0 0 -4.2791 -4.8811 42.4095 -0.2831 0 0 27.3635 3.7907 8.2162 28.2596 -63.7493 33.6833 35.3744 -79.615 32.4469 9.5594 -64.7721 7.6287 5.2944 -53.0485 7.0036 2.7308 -73.5653 2.3604 2.34 -71.6298 1.9875 -9.5192 -65.1306 -4.7347 -10.0276 -75.5062 -8.8253 -15.05 -79.5018 -13.732 -0.7634 -25.5742 -1.6592 -7.9382 -38.986 -2.8642 -6.372 -34.1607 -1.9301 12.1224 -22.1547 -0.0349 -0.004 0.0019 -23.923 -0.0042 0.0028 -51.1302 0.0433 0 0.2365 7.9985 20.9825 3.4537 0.1054 0 0 9.7672 41.3259 -11.3969 0.2674 -0.0011 0 -6.7434 5.096 -52.4406 0.2824 0 0 22.0453 -3.9454 -7.2435 27.6647 63.1944 -32.9423 35.1797 79.1855 -32.1491 9.9482 64.7228 -7.9353 4.0598 48.6309 -4.7483 2.7645 70.9601 -2.3337 2.4773 69.4952 -2.0635 -8.1387 62.8354 3.9863 -9.4063 74.8604 8.0483 -13.5778 78.7515 12.112 -5.593 42.4772 -1.6823 -20.8906 61.8091 13.0117 -22.2026 63.0766 14.175 12.1292 21.9526 -0.5169 -0.0037 -0.0007 23.0023 -0.007 -0.0039 50.0081 -0.115 0 -0.016 20.4482 2.3874 -12.7263 0 0 -0.4171 18.0719 -0.5275 0.0837 -22.7565 -1.2927 -10.4227 0 -0.1046 -0.0835 -0.2689 0.0001 0.0002 0.115 0 -0.016 1.2477 -2.8437 6.7832 0 0 -0.4171 28.2645 0.6215 -0.1564 -9.3521 0.8408 5.0014 0 -0.1046 -0.0835 -2.9397 0 0 
